<svg xmlns="http://www.w3.org/2000/svg" version="1.1" id="Layer_1" x="0px" y="0px" width="409px" height="122px" viewBox="0 0 409 122" enable-background="new 0 0 409 122" xml:space="preserve">
    <path fill-rule="evenodd" clip-rule="evenodd" fill="#008BC7" d="M119.887 31.03c-0.152-0.332-0.308-0.655-0.461-0.973L93.473 62.534l26.414 24.883V31.03L119.887 31.03zM91.224 65.35l-4.408 5.516 -0.944 1.189 -7.183-5.063L42.71 117.965l76.434-26.301L91.224 65.35 91.224 65.35zM76.009 65.104L41.055 40.472c0.339 1.888 0.512 3.816 0.512 5.761v67.646L76.009 65.104 76.009 65.104zM117.776 26.974c-6.643-11.192-15.14-11.32-32.277-10.912 -17.508 0.418-42.048 2.189-58.773 2.922 0.069 0.231 0.131 0.464 0.185 0.698 1.587 0.935 3.073 2.027 4.417 3.227 3.922 3.5 6.78 7.9 8.464 12.742l45.449 32.029L117.776 26.974 117.776 26.974z"/>
    <path fill-rule="evenodd" clip-rule="evenodd" fill="#414042" d="M39.093 46.233v14.785c-3.839-2.864-9.24-5.108-14.974-6.752C15.451 51.779 5.94 50.634 0 50.795v-9.404C0 26.82 6.134 20.083 13.541 19.028c0.396-3.687 2.281-5.341 4.451-5.5L19.952 0l1.14 14.23c1.666 0.862 3.166 2.459 3.954 4.552 0.144 0.381 0.264 0.779 0.356 1.19 0.13 0.579 0.208 1.187 0.224 1.819C33 26.127 39.093 34.979 39.093 46.233L39.093 46.233zM39.093 64.203v9.239c-2.422-1.8-5.451-3.39-8.785-4.762v-9.675C33.839 60.465 36.915 62.197 39.093 64.203L39.093 64.203zM26.656 67.305c-0.911-0.314-1.835-0.614-2.768-0.898 -1.578-0.481-3.181-0.92-4.784-1.314v-9.568c1.455 0.335 2.908 0.708 4.339 1.119 1.088 0.312 2.162 0.646 3.212 1V67.305L26.656 67.305zM15.452 64.268c-2.15-0.441-4.262-0.801-6.271-1.076v-9.407c2.009 0.242 4.122 0.566 6.271 0.973V64.268L15.452 64.268zM5.527 62.775C3.48 62.593 1.608 62.517 0 62.551v-9.285c1.596-0.047 3.471 0.005 5.527 0.159V62.775L5.527 62.775zM39.093 76.612v42.597l-10.25-4.175V79.163c0-0.896-0.733-1.825-1.628-2.065h0c-0.896-0.24-1.628 0.295-1.628 1.191v35.42l-6.906-2.813V75.209c0-0.896-0.732-1.825-1.629-2.066h0c-0.896-0.24-1.628 0.296-1.628 1.191v35.236l-6.06-2.469v-33.38c0-0.896-0.733-1.825-1.629-2.065h0c-0.896-0.24-1.629 0.295-1.629 1.191v32.928L0 103.289V65.02c5.628-0.136 14.753 1.178 23.173 3.744C29.554 70.709 35.491 73.359 39.093 76.612L39.093 76.612z"/><polygon fill="#414042" points="331.118 93.4 339.98 93.4 339.98 96.74 327.646 96.74 327.646 74.297 339.98 74.297 339.98 77.654 331.118 77.654 331.118 83.648 338.502 83.648 338.502 86.979 331.118 86.979 331.118 93.4 "/>
    <path fill="#414042" d="M162.657 38.23c-0.758 3.653-1.637 7.417-2.636 11.29l-4.381 17.548h-7.138l-12.427-39.128h7.625c2.779 9.571 5.523 19.298 8.165 28.866h0.169c0.859-4.252 1.856-8.614 2.985-13.076l4.033-15.79h7.376l4.033 15.79c1.127 4.422 2.125 8.785 2.985 13.076h0.169c2.698-9.484 5.493-19.249 8.434-28.866h7.357l-12.427 39.128h-7.137l-4.383-17.548c-0.997-3.953-1.876-7.716-2.634-11.29H162.657L162.657 38.23z"/><polygon fill="#414042" points="234.158 67.067 234.158 27.939 241.325 27.939 241.325 67.067 234.158 67.067 "/><polygon fill="#414042" points="268.503 67.067 261.346 67.067 261.346 33.938 248.709 33.938 248.709 27.939 281.109 27.939 281.109 33.938 268.503 33.938 268.503 67.067 "/><polygon fill="#414042" points="297.024 61.068 312.475 61.068 312.475 67.068 289.857 67.068 289.857 27.939 312.475 27.939 312.475 33.938 297.024 33.938 297.024 44.049 309.899 44.049 309.899 50.05 297.024 50.05 297.024 61.068 "/><polygon fill="#008BC7" points="350.697 67.068 343.541 67.068 343.541 33.94 330.904 33.94 330.904 27.941 363.304 27.941 363.304 33.94 350.697 33.94 350.697 67.068 "/>
    <path fill-rule="evenodd" clip-rule="evenodd" fill="#008BC7" d="M388.638 27.966c10.82 0 19.596 8.775 19.596 19.596 0 10.821-8.775 19.596-19.596 19.596 -10.821 0-19.596-8.775-19.596-19.596C369.042 36.741 377.816 27.966 388.638 27.966L388.638 27.966zM388.638 33.633c7.354 0 13.318 6.238 13.318 13.929 0 7.692-5.965 13.928-13.318 13.928 -7.354 0-13.319-6.236-13.319-13.928C375.318 39.871 381.283 33.633 388.638 33.633L388.638 33.633z"/>
    <path fill-rule="evenodd" clip-rule="evenodd" fill="#414042" d="M198.245 27.945h12.735c6.427 0 11.143 5.256 11.143 11.684l0 0c0 4.873-2.712 9.742-7.146 10.819l9.375 16.57h-7.146l-8.227-15.347h-0.765 -3.324v15.396h-6.646V51.311v-4.458V27.945L198.245 27.945zM204.999 33.057h4.687c4.353 0 6.571 2.957 6.571 6.572l0 0c0 3.615-1.796 6.57-6.571 6.57h-4.687V33.057L204.999 33.057z"/>
    <path fill-rule="evenodd" clip-rule="evenodd" fill="#414042" d="M296.354 74.293h7.161c3.683 0 6.384 3.012 6.384 6.693l0 0c0 2.791-1.554 5.581-4.094 6.197l5.37 9.494h-4.093l-4.713-8.792h-0.438 -1.904v8.82h-3.673v-9.027 -2.554V74.293L296.354 74.293zM300.089 77.221h2.685c2.494 0 3.765 1.694 3.765 3.766l0 0c0 2.07-1.028 3.764-3.765 3.764h-2.685V77.221L300.089 77.221z"/>
    <path fill-rule="evenodd" clip-rule="evenodd" fill="#414042" d="M191.127 74.293c6.02 0 10.9 5.022 10.9 11.217 0 6.193-4.881 11.217-10.9 11.217 -6.019 0-10.9-5.023-10.9-11.217C180.227 79.315 185.108 74.293 191.127 74.293L191.127 74.293zM191.127 77.537c4.091 0 7.409 3.57 7.409 7.973s-3.318 7.973-7.409 7.973 -7.408-3.57-7.408-7.973S187.036 77.537 191.127 77.537L191.127 77.537z"/>
    <path fill="#414042" d="M361.662 78.507c-0.39 0.479-0.583 1.024-0.583 1.634 0 1.424 0.463 2.15 1.307 2.631 1.211 0.691 2.447 1.033 3.655 1.498 1.719 0.662 3.597 1.928 4.275 3.74 0.849 2.271 0.593 4.176-0.404 5.771 -1.131 1.809-3.312 2.966-6.224 2.966 -2.116 0-4.06-0.838-5.106-2.236 -1.046-1.398-1.571-3.008-1.571-4.825h3.376c-0.064 1.118 0.3 2.063 0.792 2.759 1.634 2.312 6.319 1.441 6.209-1.68 -0.036-1.024-0.479-1.961-1.833-2.816 -1.32-0.836-2.813-1.247-4.208-1.963 -1.959-1.003-3.338-2.4-3.479-5.004 -0.223-4.053 2.595-6.686 6.434-6.688 3.482-0.002 5.869 2.693 5.82 6.192h-3.06C367.107 77.373 363.273 76.527 361.662 78.507L361.662 78.507z"/>
    <path fill="#414042" d="M392.678 78.507c-0.389 0.479-0.581 1.024-0.581 1.634 0 1.424 0.463 2.15 1.307 2.631 1.21 0.691 2.446 1.033 3.654 1.498 1.719 0.662 3.598 1.928 4.275 3.74 0.85 2.271 0.593 4.176-0.404 5.771 -1.13 1.809-3.311 2.966-6.224 2.966 -2.115 0-4.06-0.838-5.105-2.236s-1.572-3.008-1.572-4.825h3.376c-0.063 1.118 0.3 2.063 0.792 2.759 1.635 2.312 6.32 1.441 6.209-1.68 -0.036-1.024-0.479-1.961-1.832-2.816 -1.321-0.836-2.813-1.247-4.208-1.963 -1.96-1.003-3.338-2.4-3.48-5.004 -0.223-4.053 2.595-6.686 6.434-6.688 3.483-0.002 5.869 2.693 5.82 6.192h-3.059C398.125 77.373 394.29 76.527 392.678 78.507L392.678 78.507z"/>
    <path fill="#414042" d="M273.723 84.902h0.896 2.888v1.288c0 0.836 0.01 1.673-0.164 2.484 -0.939 4.386-4.141 8.085-9.968 8.072 -3.791-0.007-6.637-1.464-8.444-3.867 -1.812-2.409-2.663-4.936-2.653-7.542 0.009-2.686 0.93-5.39 2.873-7.657 1.946-2.271 4.758-3.449 8.582-3.386 4.867 0.08 8.18 3.121 9.334 6.688h-3.917c-1.8-4.127-6.985-4.28-10.116-2.021 -2.072 1.498-2.936 4.197-2.936 6.76 0 4.393 3.642 7.955 7.285 7.955 3.645 0 5.974-1.834 6.644-5.583h-5.653v-3.19H273.723L273.723 84.902z"/>
    <path fill-rule="evenodd" clip-rule="evenodd" fill="#414042" d="M153.364 74.293c4.493 0 8.352 2.799 10.02 6.795h-3.855c-1.329-2.141-3.593-3.551-6.164-3.551 -4.092 0-7.411 3.57-7.411 7.973 0 4.403 3.318 7.973 7.411 7.973 2.503 0 4.718-1.338 6.059-3.385h3.891c-1.705 3.906-5.519 6.629-9.949 6.629 -6.02 0-10.9-5.023-10.9-11.217C142.464 79.315 147.345 74.293 153.364 74.293L153.364 74.293z"/><polygon fill="#414042" points="220.384 74.293 223.773 74.293 234.988 90.374 234.996 74.293 238.23 74.293 238.23 96.674 235.131 96.674 235.125 96.218 223.805 80.342 223.805 96.674 220.384 96.674 220.384 74.293 "/>
</svg>
