<svg xmlns="http://www.w3.org/2000/svg" version="1.1" id="Layer_1" x="0px" y="0px" width="410.94px" height="119.209px" viewBox="0 0 410.94 119.209" enable-background="new 0 0 410.94 119.209" xml:space="preserve">
    <path fill-rule="evenodd" clip-rule="evenodd" fill="#FFFFFF" d="M122.771 31.029c-0.152-0.33-0.308-0.654-0.461-0.973L96.357 62.533l26.414 24.883V31.029L122.771 31.029zM94.108 65.35L89.7 70.865l-0.944 1.189 -7.183-5.063 -35.979 50.973 76.434-26.301L94.108 65.35 94.108 65.35zM78.893 65.104L43.939 40.473c0.339 1.887 0.512 3.814 0.512 5.762v67.645L78.893 65.104 78.893 65.104zM120.66 26.973c-6.643-11.191-15.14-11.32-32.277-10.91 -17.508 0.416-42.048 2.188-58.773 2.92 0.069 0.232 0.131 0.465 0.185 0.699 1.587 0.936 3.073 2.027 4.417 3.227 3.922 3.5 6.78 7.9 8.465 12.742l45.448 32.027L120.66 26.973 120.66 26.973z"/>
    <path fill-rule="evenodd" clip-rule="evenodd" fill="#FFFFFF" d="M41.977 46.234v14.783c-3.839-2.863-9.24-5.107-14.974-6.752 -8.669-2.486-18.179-3.631-24.12-3.471v-9.404c0-14.57 6.134-21.307 13.541-22.363 0.396-3.686 2.281-5.342 4.451-5.5L22.835 0l1.14 14.23c1.666 0.861 3.166 2.459 3.954 4.551 0.144 0.383 0.264 0.779 0.356 1.191 0.13 0.578 0.208 1.186 0.224 1.82C35.884 26.127 41.977 34.979 41.977 46.234L41.977 46.234zM41.977 64.203v9.24c-2.422-1.801-5.451-3.391-8.785-4.762v-9.676C36.723 60.465 39.799 62.197 41.977 64.203L41.977 64.203zM29.54 67.305c-0.911-0.314-1.835-0.615-2.768-0.898 -1.578-0.48-3.181-0.92-4.784-1.314v-9.568c1.455 0.336 2.908 0.709 4.339 1.119 1.088 0.313 2.162 0.646 3.212 1V67.305L29.54 67.305zM18.335 64.268c-2.15-0.441-4.262-0.801-6.271-1.076v-9.406c2.009 0.24 4.122 0.564 6.271 0.973V64.268L18.335 64.268zM8.411 62.775c-2.047-0.184-3.919-0.26-5.527-0.225v-9.285c1.596-0.047 3.471 0.006 5.527 0.158V62.775L8.411 62.775zM41.977 76.611v42.598l-10.25-4.174V79.164c0-0.896-0.733-1.826-1.628-2.066h0c-0.896-0.24-1.628 0.295-1.628 1.191v35.42l-6.906-2.813V75.209c0-0.896-0.732-1.826-1.629-2.066h0c-0.896-0.24-1.628 0.295-1.628 1.191v35.236l-6.06-2.469V73.721c0-0.895-0.733-1.824-1.629-2.064h0c-0.896-0.24-1.629 0.295-1.629 1.191v32.928l-6.104-2.486V65.02c5.628-0.137 14.752 1.178 23.173 3.744C32.438 70.709 38.375 73.359 41.977 76.611L41.977 76.611z"/><polygon fill="#FFFFFF" points="334.003 93.4 342.864 93.4 342.864 96.74 330.53 96.74 330.53 74.297 342.864 74.297 342.864 77.654 334.003 77.654 334.003 83.648 341.386 83.648 341.386 86.979 334.003 86.979 334.003 93.4 "/>
    <path fill="#FFFFFF" d="M165.541 38.23c-0.758 3.652-1.637 7.416-2.636 11.289l-4.381 17.547h-7.138l-12.427-39.127h7.625c2.779 9.57 5.524 19.297 8.165 28.865h0.169c0.859-4.252 1.856-8.613 2.985-13.074l4.033-15.791h7.376l4.033 15.791c1.127 4.42 2.125 8.783 2.985 13.074h0.169c2.698-9.484 5.493-19.248 8.434-28.865h7.357l-12.427 39.127h-7.137l-4.383-17.547c-0.998-3.953-1.876-7.717-2.634-11.289H165.541L165.541 38.23z"/><polygon fill="#FFFFFF" points="237.042 67.066 237.042 27.939 244.21 27.939 244.21 67.066 237.042 67.066 "/><polygon fill="#FFFFFF" points="271.388 67.066 264.229 67.066 264.229 33.938 251.593 33.938 251.593 27.939 283.993 27.939 283.993 33.938 271.388 33.938 271.388 67.066 "/><polygon fill="#FFFFFF" points="299.909 61.068 315.358 61.068 315.358 67.068 292.741 67.068 292.741 27.939 315.358 27.939 315.358 33.938 299.909 33.938 299.909 44.049 312.782 44.049 312.782 50.049 299.909 50.049 299.909 61.068 "/><polygon fill="#FFFFFF" points="353.581 67.068 346.425 67.068 346.425 33.939 333.788 33.939 333.788 27.941 366.188 27.941 366.188 33.939 353.581 33.939 353.581 67.068 "/>
    <path fill-rule="evenodd" clip-rule="evenodd" fill="#FFFFFF" d="M391.521 27.967c10.822 0 19.596 8.773 19.596 19.596 0 10.82-8.773 19.596-19.596 19.596 -10.82 0-19.596-8.775-19.596-19.596C371.925 36.74 380.7 27.967 391.521 27.967L391.521 27.967zM391.521 33.633c7.355 0 13.32 6.238 13.32 13.93s-5.965 13.928-13.32 13.928c-7.354 0-13.318-6.236-13.318-13.928S384.167 33.633 391.521 33.633L391.521 33.633z"/>
    <path fill-rule="evenodd" clip-rule="evenodd" fill="#FFFFFF" d="M201.129 27.945h12.735c6.426 0 11.143 5.256 11.143 11.684l0 0c0 4.873-2.713 9.742-7.145 10.818l9.373 16.57h-7.145l-8.227-15.348h-0.764 -3.324v15.396h-6.647V51.311v-4.459V27.945L201.129 27.945zM207.884 33.057h4.686c4.354 0 6.57 2.957 6.57 6.572l0 0c0 3.613-1.795 6.57-6.57 6.57h-4.686V33.057L207.884 33.057z"/>
    <path fill-rule="evenodd" clip-rule="evenodd" fill="#FFFFFF" d="M299.237 74.293h7.162c3.682 0 6.383 3.012 6.383 6.693l0 0c0 2.791-1.553 5.58-4.094 6.197l5.371 9.494h-4.094l-4.711-8.791h-0.439 -1.904v8.82h-3.674v-9.029 -2.553V74.293L299.237 74.293zM302.974 77.221h2.684c2.494 0 3.766 1.693 3.766 3.766l0 0c0 2.07-1.029 3.764-3.766 3.764h-2.684V77.221L302.974 77.221z"/>
    <path fill-rule="evenodd" clip-rule="evenodd" fill="#FFFFFF" d="M194.011 74.293c6.02 0 10.9 5.021 10.9 11.217 0 6.193-4.881 11.217-10.9 11.217 -6.019 0-10.9-5.023-10.9-11.217C183.111 79.314 187.992 74.293 194.011 74.293L194.011 74.293zM194.011 77.537c4.091 0 7.409 3.57 7.409 7.973s-3.318 7.973-7.409 7.973 -7.408-3.57-7.408-7.973S189.92 77.537 194.011 77.537L194.011 77.537z"/>
    <path fill="#FFFFFF" d="M364.546 78.508c-0.389 0.477-0.582 1.023-0.582 1.633 0 1.424 0.463 2.15 1.307 2.631 1.211 0.691 2.447 1.033 3.654 1.498 1.719 0.662 3.598 1.928 4.275 3.74 0.85 2.27 0.592 4.176-0.404 5.771 -1.131 1.809-3.311 2.965-6.225 2.965 -2.115 0-4.059-0.838-5.105-2.236s-1.572-3.008-1.572-4.826h3.377c-0.064 1.119 0.299 2.064 0.791 2.76 1.635 2.311 6.32 1.441 6.209-1.68 -0.035-1.025-0.477-1.961-1.832-2.816 -1.32-0.836-2.813-1.248-4.207-1.963 -1.959-1.004-3.338-2.4-3.48-5.004 -0.223-4.053 2.596-6.686 6.434-6.688 3.482-0.002 5.869 2.693 5.82 6.193h-3.059C369.991 77.373 366.157 76.527 364.546 78.508L364.546 78.508z"/>
    <path fill="#FFFFFF" d="M395.562 78.508c-0.389 0.477-0.582 1.023-0.582 1.633 0 1.424 0.463 2.15 1.307 2.631 1.211 0.691 2.447 1.033 3.656 1.498 1.719 0.662 3.596 1.928 4.275 3.74 0.848 2.27 0.592 4.176-0.404 5.771 -1.131 1.809-3.313 2.965-6.225 2.965 -2.115 0-4.059-0.838-5.105-2.236s-1.572-3.008-1.572-4.826h3.377c-0.064 1.119 0.299 2.064 0.791 2.76 1.635 2.311 6.32 1.441 6.209-1.68 -0.035-1.025-0.479-1.961-1.832-2.816 -1.32-0.836-2.813-1.248-4.209-1.963 -1.959-1.004-3.336-2.4-3.479-5.004 -0.223-4.053 2.594-6.686 6.434-6.688 3.482-0.002 5.869 2.693 5.82 6.193h-3.061C401.009 77.373 397.175 76.527 395.562 78.508L395.562 78.508z"/>
    <path fill="#FFFFFF" d="M276.606 84.902h0.896 2.887v1.287c0 0.836 0.012 1.674-0.162 2.484 -0.941 4.387-4.141 8.086-9.969 8.074 -3.791-0.008-6.637-1.465-8.443-3.869 -1.813-2.408-2.664-4.936-2.654-7.541 0.008-2.686 0.93-5.391 2.873-7.658 1.945-2.27 4.758-3.447 8.582-3.385 4.867 0.08 8.18 3.121 9.334 6.688h-3.916c-1.801-4.127-6.986-4.281-10.117-2.021 -2.072 1.498-2.936 4.197-2.936 6.76 0 4.393 3.641 7.955 7.285 7.955s5.975-1.834 6.645-5.582h-5.654v-3.191H276.606L276.606 84.902z"/>
    <path fill-rule="evenodd" clip-rule="evenodd" fill="#FFFFFF" d="M156.248 74.293c4.493 0 8.352 2.799 10.02 6.795h-3.855c-1.329-2.141-3.593-3.551-6.164-3.551 -4.092 0-7.411 3.57-7.411 7.973 0 4.404 3.318 7.973 7.411 7.973 2.503 0 4.718-1.338 6.059-3.385h3.891c-1.705 3.906-5.519 6.629-9.949 6.629 -6.02 0-10.9-5.023-10.9-11.217C145.348 79.314 150.229 74.293 156.248 74.293L156.248 74.293z"/><polygon fill="#FFFFFF" points="223.267 74.293 226.657 74.293 237.872 90.375 237.88 74.293 241.114 74.293 241.114 96.674 238.015 96.674 238.009 96.219 226.688 80.342 226.688 96.674 223.267 96.674 223.267 74.293 "/>
</svg>
